<?xml version="1.0" standalone="no"?>
<!DOCTYPE svg PUBLIC "-//W3C//DTD SVG 20010904//EN"
 "http://www.w3.org/TR/2001/REC-SVG-20010904/DTD/svg10.dtd">
<svg version="1.0" xmlns="http://www.w3.org/2000/svg"
 width="440.000000pt" height="200.000000pt" viewBox="0 0 440.000000 200.000000"
 preserveAspectRatio="xMidYMid meet">

<g transform="translate(0.000000,200.000000) scale(0.100000,-0.100000)"
fill="#000000" stroke="none">
<path d="M1146 1443 c-5 -53 -4 -70 7 -78 11 -8 15 -53 20 -195 7 -220 34
-357 96 -486 34 -71 123 -186 135 -173 2 2 -5 45 -16 94 -38 178 -34 452 8
614 22 85 24 90 44 96 22 7 26 17 35 87 l7 55 -144 22 c-78 12 -153 24 -164
26 -20 4 -22 -1 -28 -62z"/>
<path d="M2236 1475 c-35 -8 -66 -21 -75 -33 -10 -12 -34 -22 -66 -27 -27 -4
-83 -22 -123 -40 -175 -81 -293 -281 -279 -472 16 -216 180 -344 472 -367 l80
-7 -65 27 c-150 62 -231 157 -246 289 -15 129 63 243 192 277 41 11 47 11 59
-6 12 -16 22 -18 81 -11 l67 7 -7 131 c-8 163 -17 247 -25 246 -3 -1 -33 -7
-65 -14z"/>
<path d="M2686 1434 c-3 -26 -6 -64 -6 -84 0 -26 -9 -48 -30 -75 -78 -98 -128
-270 -117 -401 13 -145 67 -229 194 -299 58 -32 72 -35 146 -36 80 -2 84 0
156 42 40 24 89 63 108 86 113 137 93 430 -42 606 -33 44 -35 50 -35 126 0 92
4 89 -93 70 -40 -8 -58 -17 -62 -30 -9 -26 -61 -26 -68 0 -3 13 -20 22 -56 30
-85 18 -87 17 -95 -35z m223 -350 c17 -14 45 -55 63 -92 65 -131 47 -265 -48
-352 -24 -22 -48 -40 -54 -40 -6 0 -33 22 -60 49 -52 52 -80 119 -80 193 0 80
55 200 115 250 26 23 28 22 64 -8z"/>
<path d="M3148 583 c6 -2 12 -11 12 -18 0 -7 -6 -16 -12 -18 -7 -3 15 -6 50
-6 60 -1 62 0 62 24 0 24 -2 25 -62 24 -35 0 -57 -3 -50 -6z m52 -18 c0 -8 -7
-15 -15 -15 -8 0 -15 7 -15 15 0 8 7 15 15 15 8 0 15 -7 15 -15z m48 -3 c2 -7
-6 -12 -17 -12 -21 0 -27 11 -14 24 9 9 26 2 31 -12z"/>
</g>
</svg>
